# AST/ASF file generated using VICON BodyLanguage
# -----------------------------------------------
:version 1.10
:name VICON
:units
  mass 1.0
  length 0.45
  angle deg
:documentation
   .ast/.asf automatically generated from VICON data using
   VICON BodyBuilder and BodyLanguage model FoxedUp or BRILLIANT.MOD
:root
   order TX TY TZ RX RY RZ
   axis XYZ
   position 0 0 0  
   orientation 0 0 0 
:bonedata
  begin
     id 1 
     name lhipjoint
     direction 0.54267 -0.795011 0.271047 
     length 2.39899 
     axis 0 0 0  XYZ
  end
  begin
     id 2 
     name lfemur
     direction 0.34202 -0.939693 0  
     length 7.49701  
     axis 0 0 20  XYZ
    dof rx ry rz
    limits (-160.0 20.0)
           (-70.0 70.0)
           (-60.0 70.0)
  end
  begin
     id 3 
     name ltibia
     direction 0.34202 -0.939693 0   
     length 8.1668   
     axis 0 0 20   XYZ
    dof rx
    limits (-10.0 170.0)
  end
  begin
     id 4 
     name lfoot
     direction 0.0736283 -0.202292 0.976554   
     length 2.13544   
     axis -90 7.62852e-016 20   XYZ
    dof rx rz
    limits (-45.0 90.0)
           (-70.0 20.0)
  end
  begin
     id 5 
     name ltoes
     direction 1.53557e-011 -4.22024e-011 1   
     length 1.07411   
     axis -90 7.62852e-016 20   XYZ
    dof rx
    limits (-90.0 20.0)
  end
  begin
     id 6 
     name rhipjoint
     direction -0.538061 -0.797813 0.272002   
     length 2.39057  
     axis 0 0 0  XYZ 
  end
  begin
     id 7 
     name rfemur
     direction -0.34202 -0.939693 0   
     length 7.50152   
     axis 0 0 -20   XYZ
    dof rx ry rz
    limits (-160.0 20.0)
           (-70.0 70.0)
           (-70.0 60.0)
  end
  begin
     id 8 
     name rtibia
     direction -0.34202 -0.939693 0   
     length 8.05793   
     axis 0 0 -20   XYZ
    dof rx
    limits (-10.0 170.0)
 end
 begin
     id 9 
     name rfoot
     direction -0.0765195 -0.210236 0.974652   
     length 2.28698  
     axis -90 -7.62852e-016 -20   XYZ
    dof rx rz
    limits (-45.0 90.0)
           (-20.0 70.0)
  end
  begin
     id 10 
     name rtoes
     direction -1.53542e-011 -4.21847e-011 1   
     length 1.14762   
     axis -90 -7.62852e-016 -20   XYZ
    dof rx
    limits (-90.0 20.0)
  end
  begin
     id 11 
     name lowerback
     direction -0.0217239 0.996592 -0.0795765   
     length 2.08176   
     axis 0 0 0   XYZ
    dof rx ry rz
    limits (-20.0 45.0)
           (-30.0 30.0)
           (-30.0 30.0)
  end
  begin
     id 12 
     name upperback
     direction -0.00563773 0.999651 -0.0258155   
     length 2.08898   
     axis 0 0 0   XYZ
    dof rx ry rz
    limits (-20.0 45.0)
           (-30.0 30.0)
           (-30.0 30.0)
  end
  begin
     id 13 
     name thorax
     direction 0.0032706 0.999923 0.0119599   
     length 2.0968   
     axis 0 0 0   XYZ
    dof rx ry rz
    limits (-20.0 45.0)
           (-30.0 30.0)
           (-30.0 30.0)
  end
  begin
     id 14 
     name lowerneck
     direction -0.0285886 0.99568 0.0883427   
     length 1.81272   
     axis 0 0 0   XYZ
    dof rx ry rz
    limits (-20.0 45.0)
           (-30.0 30.0)
           (-30.0 30.0)
  end
  begin
     id 15 
     name upperneck
     direction 0.0807535 0.97985 -0.18268   
     length 1.82518   
     axis 0 0 0   XYZ
    dof rx ry rz
    limits (-20.0 45.0)
           (-30.0 30.0)
           (-30.0 30.0)
  end
  begin
     id 16
     name head
     direction 0.0236605 0.997053 -0.0729767  
     length 1.84443  
     axis 0 0 0   XYZ
    dof rx ry rz
    limits (-20.0 45.0)
           (-30.0 30.0)
           (-30.0 30.0)
  end
  begin
     id 17 
     name lclavicle
     direction 0.918986 0.39378 -0.0200683  
     length 3.27822  
     axis 0 0 0   XYZ
    dof ry rz
    limits (-20.0 10.0)
           (0.0 20.0)
  end
  begin
     id 18 
     name lhumerus
     direction 1 -4.4897e-011 2.09544e-027   
     length 5.5568   
     axis 180 -30 -90   XYZ
    dof rx ry rz
    limits (-60.0 90.0)
           (-90.0 90.0)
           (-90.0 90.0)
  end
  begin
     id 19
     name lradius
     direction 1 -4.48957e-011 -1.27696e-026   
     length 3.63979   
     axis 180 -30 -90   XYZ
    dof rx
    limits (-10.0 170.0)
  end
  begin
     id 20
     name lwrist
     direction 1 -4.49001e-011 -1.49001e-026   
     length 1.8199   
     axis 9.0955e-015 90 90   XYZ
    dof ry
    limits (-180.0 0.0)
 end
  begin
     id 21 
     name lhand
     direction 1 -4.48709e-011 -2.9758e-026   
     length 0.569419   
     axis 1.90115e-014 90 90   XYZ
    dof rx rz
    limits (-90.0 90.0)
           (-45.0 45.0)
  end
  begin
     id 22 
     name lfingers
     direction 1 -4.49175e-011 -5.96505e-026   
     length 0.45908   
     axis 3.80223e-014 90 90   XYZ
    dof rx
    limits (0.0 90.0)
  end
  begin
     id 23
     name lthumb
     direction 0.707107 -6.34864e-011 0.707107   
     length 0.65915   
     axis -90 45 -3.84942e-014   XYZ
    dof rx rz
    limits (-45.0 45.0)
           (-45.0 45.0)
  end
  begin
     id 24 
     name rclavicle
     direction -0.911913 0.396426 -0.106115   
     length 3.46301  
     axis 0 0 0   XYZ 
    dof ry rz
    limits (-10.0 20.0)
           (-20.0 0.0)
  end
  begin
     id 25 
     name rhumerus
     direction -1 -4.48965e-011 7.78516e-028  
     length 5.34339   
     axis 180 30 90   XYZ
    dof rx ry rz
    limits (-90.0 60.0)
           (-90.0 90.0)
           (-90.0 90.0)
  end
  begin
     id 26 
     name rradius
     direction -1 -4.48948e-011 -5.79823e-027   
     length 3.65101   
     axis 180 30 90   XYZ
    dof rx
    limits (-10.0 170.0)
  end
  begin
     id 27 
     name rwrist
     direction -1 -4.48995e-011 -1.48996e-026   
     length 1.8255   
     axis 9.0955e-015 -90 -90   XYZ
    dof ry
    limits (-180.0 0.0)
  end
  begin
     id 28
     name rhand
     direction -1 -4.48957e-011 -2.97937e-026   
     length 0.694249   
     axis 1.90115e-014 -90 -90   XYZ
    dof rx rz
    limits (-90.0 90.0)
           (-45.0 45.0)
  end
  begin
     id 29
     name rfingers
     direction -1 -4.4898e-011 -5.95943e-026   
     length 0.559721   
     axis 3.80223e-014 -90 -90   XYZ
    dof rx
    limits (0.0 90.0)
  end
  begin
     id 30
     name rthumb
     direction -0.707107 -6.34969e-011 0.707107   
     length 0.803651   
     axis -90 -45 3.84942e-014   XYZ
    dof rx rz
    limits (-45.0 45.0)
           (-45.0 45.0)
  end
:hierarchy
  begin
    root lhipjoint rhipjoint lowerback
    lhipjoint lfemur
    lfemur ltibia
    ltibia lfoot
    lfoot ltoes
    rhipjoint rfemur
    rfemur rtibia
    rtibia rfoot
    rfoot rtoes
    lowerback upperback
    upperback thorax
    thorax lowerneck lclavicle rclavicle
    lowerneck upperneck
    upperneck head
    lclavicle lhumerus
    lhumerus lradius
    lradius lwrist
    lwrist lhand lthumb
    lhand lfingers
    rclavicle rhumerus
    rhumerus rradius
    rradius rwrist
    rwrist rhand rthumb
    rhand rfingers
  end

#!OML:ASF H:\Terrain\Walking\May29\JustinRory\rory.ASF
:FULLY-SPECIFIED
:DEGREES
19
root 11.3029 18.1034 -17.675 0.49061 57.1266 -1.64018
lowerback -3.08406 -0.735177 -5.34297
upperback 0.465675 -0.76739 -0.114626
thorax 2.28084 -0.449256 2.83959
lowerneck 0.350133 -16.9744 -15.1111
upperneck 24.1411 -25.8889 14.1247
head 11.7664 -12.1284 4.19482
rclavicle 2.3059e-014 -7.95139e-016
rhumerus -34.2416 -17.013 -78.496
rradius 24.9164
rwrist 13.1293
rhand -5.2677 29.8228
rfingers 7.12502
rthumb 20.5362 0.888982
lclavicle 2.3059e-014 -7.95139e-016
lhumerus -34.6864 12.6939 80.9416
lradius 22.6945
lwrist -13.7941
lhand -17.4779 17.2587
lfingers 7.12502
lthumb 8.77415 47.0563
rfemur -10.4258 16.1137 13.8705
rtibia 23.177
rfoot -12.2336 -8.55031
rtoes 10.2179
lfemur -0.861496 -7.77365 -17.2242
ltibia 18.9995
lfoot -23.2372 16.1265
ltoes -3.24997
20
root 11.3083 18.1029 -17.6717 0.509518 57.208 -1.64052
lowerback -3.19473 -0.700405 -5.29856
upperback 0.416129 -0.714552 -0.214967
thorax 2.28522 -0.420533 2.71307
lowerneck 0.616497 -16.9703 -15.0586
upperneck 24.2111 -25.9565 14.2659
head 11.7723 -12.1546 4.25153
rclavicle 1.00635e-015 -1.35174e-014
rhumerus -34.1966 -17.1257 -78.276
rradius 24.8823
rwrist 13.3854
rhand -5.06006 30.0546
rfingers 7.12502
rthumb 20.7357 1.14243
lclavicle 1.00635e-015 -1.35174e-014
lhumerus -34.6519 8.60835 83.6083
lradius 24.0672
lwrist -5.12817
lhand -24.0597 23.8984
lfingers 7.12502
lthumb 2.4197 53.8644
rfemur -10.3835 15.8484 13.9071
rtibia 23.1388
rfoot -12.0935 -8.61677
rtoes 9.48489
lfemur -0.888059 -7.82946 -17.2316
ltibia 19.0282
lfoot -23.0985 16.2807
ltoes -4.40912
21
root 11.3084 18.102 -17.6697 0.396858 57.273 -1.82338
lowerback -3.25392 -0.796945 -5.24318
upperback 0.462834 -0.842825 -0.128384
thorax 2.37832 -0.487813 2.76346
lowerneck 0.358948 -16.8804 -15.1675
upperneck 24.3351 -25.8141 14.2566
head 11.8593 -12.0796 4.26498
rclavicle 6.57977e-014 6.36111e-015
rhumerus -33.6344 -17.0123 -77.9942
rradius 24.5978
rwrist 13.7428
rhand -4.16326 30.0306
rfingers 7.12502
rthumb 21.5972 1.21495
lclavicle 6.57977e-014 6.36111e-015
lhumerus -34.4938 10.696 82.6554
lradius 24.8087
lwrist -11.4194
lhand -17.7192 32.9985
lfingers 7.12502
lthumb 8.54129 62.8057
rfemur -10.4002 15.7228 14.0409
rtibia 23.1032
rfoot -11.9986 -8.65386
rtoes 9.21482
lfemur -0.962371 -7.87026 -17.0976
ltibia 19.0635
lfoot -23.1028 16.2209
ltoes -4.02313
22
root 11.3083 18.1017 -17.6687 0.226228 57.3199 -2.05066
lowerback -3.28941 -0.858693 -5.16712
upperback 0.525361 -0.928592 0.0185356
thorax 2.47153 -0.534501 2.86685
lowerneck 0.0417677 -16.8162 -15.4061
upperneck 24.4337 -25.7009 14.2828
head 11.9791 -12.0223 4.29434
rclavicle -3.2551e-015 8.74653e-015
rhumerus -33.1167 -16.4262 -77.7751
rradius 24.5126
rwrist 13.3144
rhand -3.57762 29.6066
rfingers 7.12502
rthumb 22.1595 0.856611
lclavicle -3.2551e-015 8.74653e-015
lhumerus -34.2621 11.2191 82.7493
lradius 24.8224
lwrist -11.2924
lhand -17.3541 30.5418
lfingers 7.12502
lthumb 8.89361 60.3343
rfemur -10.3575 15.8316 14.1639
rtibia 23.0425
rfoot -12.033 -8.67323
rtoes 8.91642
lfemur -1.03112 -7.8062 -16.9338
ltibia 19.1396
lfoot -23.1384 15.9722
ltoes -3.73474
23
root 11.3094 18.1026 -17.6663 0.0995325 57.3419 -2.21498
lowerback -3.34769 -0.843096 -5.10125
upperback 0.523525 -0.908408 0.0603015
thorax 2.50016 -0.524599 2.8735
lowerneck 0.0141517 -16.848 -15.4585
upperneck 24.5713 -25.7604 14.276
head 12.0576 -12.0454 4.28329
rclavicle 3.41288e-014 -9.93923e-015
rhumerus -32.923 -16.3753 -77.456
rradius 24.5326
rwrist 13.1104
rhand -3.67686 29.4695
rfingers 7.12502
rthumb 22.0642 0.708224
lclavicle 3.41288e-014 -9.93923e-015
lhumerus -34.1588 9.54907 83.9134
lradius 24.7795
lwrist -5.81699
lhand -22.4569 25.6292
lfingers 7.12502
lthumb 3.96758 55.572
rfemur -10.3311 16.012 14.2474
rtibia 23.0277
rfoot -12.1493 -8.70376
rtoes 9.23035
lfemur -1.04663 -7.81963 -16.838
ltibia 19.1556
lfoot -23.1081 15.9638
ltoes -4.04097
24
root 11.3096 18.1072 -17.6617 0.218505 57.3813 -2.14113
lowerback -3.44393 -0.883494 -5.21505
upperback 0.552062 -0.951605 0.0907778
thorax 2.59032 -0.550789 2.96494
lowerneck -0.141531 -16.8696 -15.4546
upperneck 24.69 -25.7801 14.2178
head 12.1282 -12.0441 4.24295
rclavicle 3.20913e-014 2.38542e-015
rhumerus -32.6201 -16.7824 -77.0582
rradius 24.4982
rwrist 13.5621
rhand -3.85897 29.6334
rfingers 7.12502
rthumb 21.8894 0.851637
lclavicle 3.20913e-014 2.38542e-015
lhumerus -33.976 9.02073 84.3728
lradius 24.7941
lwrist -3.98751
lhand -24.6616 24.3443
lfingers 7.12502
lthumb 1.83839 54.3161
rfemur -10.4119 16.085 14.1903
rtibia 23.0713
rfoot -12.2753 -8.707
rtoes 10.3817
lfemur -1.08433 -7.84206 -16.8633
ltibia 19.0998
lfoot -23.0109 16.1469
ltoes -4.58012
25
root 11.3096 18.1097 -17.6575 0.34085 57.4294 -2.04819
lowerback -3.49367 -0.9189 -5.31588
upperback 0.577753 -0.99122 0.114043
thorax 2.65089 -0.574262 3.04238
lowerneck -0.317864 -16.8428 -15.4857
upperneck 24.7633 -25.7395 14.2371
head 12.1921 -12.0126 4.24512
rclavicle -9.40376e-014 5.96354e-015
rhumerus -32.3529 -17.1145 -76.6624
rradius 24.6028
rwrist 13.9782
rhand -3.83918 29.8317
rfingers 7.12502
rthumb 21.9084 1.0521
lclavicle -9.40376e-014 5.96354e-015
lhumerus -33.794 9.66559 84.0504
lradius 24.7637
lwrist -5.78029
lhand -23.4169 23.6725
lfingers 7.12502
lthumb 3.04052 53.6305
rfemur -10.4557 16.0794 14.1338
rtibia 23.0965
rfoot -12.3196 -8.71854
rtoes 10.8443
lfemur -1.129 -7.79222 -16.8723
ltibia 19.0784
lfoot -22.9964 16.0923
ltoes -4.43167
26
root 11.3103 18.1032 -17.6555 0.386643 57.4944 -1.99928
lowerback -3.50527 -0.929259 -5.34276
upperback 0.564138 -1.00278 0.091504
thorax 2.64452 -0.579739 3.0334
lowerneck -0.401151 -16.8567 -15.4666
upperneck 24.9785 -25.7651 14.163
head 12.2845 -12.0141 4.20377
rclavicle -1.04436e-013 9.54166e-015
rhumerus -32.2867 -17.2009 -76.3325
rradius 24.9575
rwrist 13.9942
rhand -3.94388 30.0994
rfingers 7.12502
rthumb 21.8078 1.30806
lclavicle -1.04436e-013 9.54166e-015
lhumerus -33.685 9.71991 83.9756
lradius 24.8614
lwrist -6.29183
lhand -22.5309 23.007
lfingers 7.12502
lthumb 3.89609 52.9511
rfemur -10.4452 15.882 14.1445
rtibia 23.1349
rfoot -12.2256 -8.80426
rtoes 10.1675
lfemur -1.10966 -7.77056 -16.8751
ltibia 19.0369
lfoot -23.0148 15.7999
ltoes -3.78481
27
root 11.3109 18.0994 -17.6557 0.493924 57.5726 -1.92053
lowerback -3.53439 -0.954866 -5.38696
upperback 0.539953 -1.03348 0.0820943
thorax 2.63945 -0.594941 3.04642
lowerneck -0.517238 -16.8889 -15.3932
upperneck 25.216 -25.7929 13.9897
head 12.3673 -12.0178 4.11676
rclavicle -2.53078e-014 6.36111e-015
rhumerus -32.266 -17.4387 -75.885
rradius 25.6302
rwrist 14.7848
rhand -3.21043 29.8387
rfingers 7.12502
rthumb 22.512 1.13098
lclavicle -2.53078e-014 6.36111e-015
lhumerus -33.5618 9.48432 84.1791
lradius 25.0162
lwrist -5.43752
lhand -22.9767 22.8704
lfingers 7.12502
lthumb 3.46556 52.822
rfemur -10.5201 15.5964 14.1189
rtibia 23.2285
rfoot -12.1531 -8.84321
rtoes 8.97957
lfemur -1.09719 -7.79963 -16.9243
ltibia 18.9122
lfoot -22.8964 15.7461
ltoes -4.04717
28
root 11.3119 18.1014 -17.6555 0.888014 57.6217 -1.47691
lowerback -3.54631 -0.96927 -5.65012
upperback 0.517134 -1.03859 0.0176978
thorax 2.62715 -0.599783 3.12722
lowerneck -0.529394 -16.8994 -15.3565
upperneck 25.349 -25.8211 13.961
head 12.4186 -12.0226 4.09564
rclavicle -1.58903e-014 -6.75868e-015
rhumerus -32.2113 -17.8151 -75.413
rradius 26.2948
rwrist 15.5294
rhand -2.57585 29.4857
rfingers 7.12502
rthumb 23.121 0.853107
lclavicle -1.58903e-014 -6.75868e-015
lhumerus -33.4881 9.53125 84.1947
lradius 25.1186
lwrist -5.47024
lhand -22.7559 23.026
lfingers 7.12502
lthumb 3.67885 52.974
rfemur -10.5676 15.7195 13.8089
rtibia 23.3095
rfoot -12.3407 -8.80136
rtoes 9.45643
lfemur -1.07797 -7.77129 -17.1926
ltibia 18.7999
lfoot -22.7389 15.8879
ltoes -4.84664
29
root 11.3121 18.1029 -17.6521 1.27944 57.6134 -1.00791
lowerback -3.56463 -0.961891 -5.94481
upperback 0.504334 -1.01206 -0.0573861
thorax 2.62614 -0.589637 3.21636
lowerneck -0.430284 -16.9135 -15.3362
upperneck 25.3981 -25.8724 14.0075
head 12.4342 -12.0428 4.10922
rclavicle 2.80908e-014 -2.22639e-014
rhumerus -32.0725 -17.4679 -75.332
rradius 26.6441
rwrist 14.1335
rhand -3.41784 30.2135
rfingers 7.12502
rthumb 22.3129 1.48183
lclavicle 2.80908e-014 -2.22639e-014
lhumerus -33.3961 9.44255 84.3202
lradius 25.1965
lwrist -5.11505
lhand -23.2178 23.2012
lfingers 7.12502
lthumb 3.23281 53.1564
rfemur -10.5679 16.0485 13.4911
rtibia 23.3365
rfoot -12.5422 -8.86115
rtoes 11.006
lfemur -1.05247 -7.64475 -17.4507
ltibia 18.7461
lfoot -22.6081 15.9042
ltoes -4.96996
30
root 11.3113 18.1051 -17.6469 1.31992 57.5938 -0.978312
lowerback -3.58699 -0.969891 -6.00218
upperback 0.481492 -1.01908 -0.062943
thorax 2.61681 -0.593093 3.24227
lowerneck -0.412477 -16.8968 -15.2591
upperneck 25.5049 -25.8542 13.9525
head 12.4495 -12.0292 4.08692
rclavicle -5.96851e-014 4.77083e-015
rhumerus -32.0149 -16.9879 -75.3189
rradius 27.1109
rwrist 13.0781
rhand -2.99534 31.7421
rfingers 7.12502
rthumb 22.7184 3.05951
lclavicle -5.96851e-014 4.77083e-015
lhumerus -33.3063 9.89726 84.0935
lradius 25.2156
lwrist -6.17665
lhand -22.8239 22.7144
lfingers 7.12502
lthumb 3.61314 52.6636
rfemur -10.592 16.1958 13.475
rtibia 23.3549
rfoot -12.5958 -8.94794
rtoes 11.7214
lfemur -1.02101 -7.691 -17.4595
ltibia 18.684
lfoot -22.6093 15.9502
ltoes -4.60162
31
root 11.3104 18.1075 -17.6433 1.14118 57.6594 -1.21199
lowerback -3.60777 -1.01203 -5.92783
upperback 0.471332 -1.07905 -0.0143162
thorax 2.62345 -0.622388 3.24698
lowerneck -0.422411 -16.8806 -15.3045
upperneck 25.6275 -25.8481 13.9619
head 12.5096 -12.0234 4.09648
rclavicle -1.81018e-014 5.1684e-015
rhumerus -31.9548 -16.585 -75.2203
rradius 27.8579
rwrist 12.7897
rhand -6.36094 30.9756
rfingers 7.12502
rthumb 19.4854 1.93195
lclavicle -1.81018e-014 5.1684e-015
lhumerus -33.26 11.5935 83.008
lradius 25.3313
lwrist -11.5778
lhand -17.6166 23.3751
lfingers 7.12502
lthumb 8.64032 53.1783
rfemur -10.5996 16.294 13.6158
rtibia 23.3749
rfoot -12.7002 -8.93424
rtoes 12.3125
lfemur -1.01222 -7.86269 -17.3101
ltibia 18.633
lfoot -22.7685 15.865
ltoes -3.42933
32
root 11.3101 18.1095 -17.642 0.960898 57.7464 -1.41029
lowerback -3.5956 -1.03685 -5.84513
upperback 0.464721 -1.11834 0.0290664
thorax 2.6128 -0.640813 3.2433
lowerneck -0.304665 -16.9436 -15.4571
upperneck 25.701 -25.9745 14.0328
head 12.5777 -12.0896 4.12418
rclavicle 3.45513e-014 5.56597e-015
rhumerus -31.8587 -16.0242 -75.1122
rradius 28.6034
rwrist 11.8972
rhand -7.21774 31.2273
rfingers 7.12502
rthumb 18.6614 2.10242
lclavicle 3.45513e-014 5.56597e-015
lhumerus -33.1866 9.68583 84.2714
lradius 25.7615
lwrist -6.50967
lhand -22.0743 23.7438
lfingers 7.12502
lthumb 4.33701 53.6794
rfemur -10.5524 16.3641 13.7501
rtibia 23.3518
rfoot -12.7729 -8.97245
rtoes 12.224
lfemur -1.02839 -7.87677 -17.1669
ltibia 18.6617
lfoot -22.8884 15.6504
ltoes -2.48369
